<?xml version="1.0" encoding="UTF-8"?>
<svg id="Layer_1" data-name="Layer 1" xmlns="http://www.w3.org/2000/svg" viewBox="0 0 1164 1536">
  <path d="m1113.82,757.91c21.17,10.45,50.18,1.05,50.18,1.05-27.44,4.97-32.41-17.25-32.41-17.25,6.27-2.09,32.67-22.22,19.08-13.59-13.59,8.62-22.21,2.35-21.17,1.83,1.05-.52-3.14-8.1,9.93-8.67,13.07-.57,15.42-16.42,12.54-12.76-2.88,3.66-16.73,6.53-31.88,11.76-15.16,5.23-5.23-11.76-5.23-11.76,16.2,4.44,56.45-30.58,46.52-24.57-9.93,6.01-33.19,11.24-35.54,4.18-2.35-7.05,31.36-20.39,31.36-20.39-2.35-3.66-10.98.26-23.52,2.88-12.54,2.61-10.98,0-10.98,0,13.07-19.08,15.16-27.18,15.16-27.18-34.5,27.7-29.53,19.6-29.53,19.6,1.83-7.32,3.14-9.67,4.18-13.59-.26-3.14,11.5-16.98-2.09-14.11-.36.07-.71.14-1.06.21-12.85,2.3-18.54-4.39-18.54-4.39,6.53-1.05,13.07-2.09,17.25-2.09s8.89-3.14,8.89-3.14c13.07-5.49,23.78,7.84,23.78,7.84,2.09-17.51-8.36-22.21-8.36-22.21l8.36-16.73c-24.83,6.8-29.53-3.14-31.62-6.8-2.55-4.46-12.21-3.71-16.54-4.22-5.49-.63-10.03-3.41-15.08-5.34-4.74-1.81-9.7-3.12-14.59-4.47,5.15-5.02,11.69-8.38,17.92-11.85,7.27-4.05,14.72-7.79,21.89-12.02,1.98-1.17,4.75-2.51,6.14-4.44,3.4-4.7,2.61-17.77,2.61-17.77-29.01,20.65-26.13,7.98-26.13,7.98,25.35-30.7,11.24-47.18,11.24-47.18-2.35,9.67-15.16,21.69-15.16,21.69-14.89,19.86-29.01,22.48-34.49,24.83-5.49,2.35-3.14-2.35-3.14-2.35,15.42-12.54,20.38-25.09,20.38-25.09h-5.49c11.16-13.54,22.74-40.25,22.74-40.25-35.8,49.13-94.34,35.02-94.34,35.02,2.09-4.97,20.38-18.03,20.38-18.03,32.14-17.77,35.28-45.73,35.28-45.73-.17.16-.34.32-.52.48-6.79,6.15-16.73,12.85-16.73,12.85,7.58-15.16,11.24-26.92,11.24-26.92-9.15,9.15-20.39,15.42-20.39,15.42,15.42-25.61,16.99-37.11,16.99-37.11-15.68,15.16-21.95,12.02-21.95,12.02,9.93-12.81,14.11-31.1,14.11-31.1-15.94,19.08-21.95,13.33-21.95,13.33-7.84-1.05-2.88-66.12-2.88-66.12-15.16,7.58-11.5,31.36-10.98,43.91.52,12.54-1.83,27.7-13.33,30.32-11.5,2.61-16.2,11.24-16.2,11.24-24.3,20.64-31.62,18.55-31.62,18.55,8.62-10.52,12.02-17.25,17.51-26.66,18.29-15.94,4.7-18.55,4.7-18.55-1.04,10.98-10.19,11.5-14.63,8.1-4.44-3.4-3.92-13.85-3.92-13.85-1.04,2.35-2.61,6.01-6.79,5.23-2.61-1.57-2.61-20.12-2.61-20.12-2.88,5.23-8.89,23-10.19,29.53-4.97,3.4-21.17-.52-21.17-.52,7.58,1.31,13.85,8.36,20.12,12.02,2.87,5.23,14.89,5.75,14.89,5.75v1.83c-7.58,21.69-28.75,28.23-28.75,25.09s-.26-10.98-2.88-14.37c-2.39-3.11-9.62-3.44-13.09-4.04-3-.51-6.04-.9-9.07-1.22-3.06-.32-6.08-.7-8.3-3.07-1.54-1.65-2.9-3.48-4.71-4.85-1.87-1.4-4.05-2.32-5.86-3.81-7.58-6.27-14.63-15.68-14.63-15.68-5.23-31.36,7.84-44.43,11.24-47.56,3.4-3.14,5.75-6.01-1.57-8.1,13.85-4.7,15.94-21.17,15.94-21.17,27.18-14.37,61.67-57.23,61.67-57.23-16.2,16.73-57.76,21.43-68.21,25.61-10.45,4.18-36.59,13.33-39.2,16.46-2.61,3.14-21.43,26.39-21.43,26.39-18.82,13.07-18.82,30.58-18.82,30.58-14.63,30.05-19.6,24.3-19.6,24.3-13.85-20.91-22.74-1.31-22.74-1.31,19.08,5.23,16.47,13.59,16.47,13.59-6.79,10.45-22.74,5.49-28.23,9.41-5.49,3.92-28.22,31.88-33.71,30.84-5.49-1.05-23.26-4.97-26.92-7.58-3.92-.52-24.57-17.77-29.79-19.86,2.09-6.27,6.27-7.06,16.47-9.15,7.06-7.06,19.86-18.03,19.86-18.03l2.61-.26c21.17,9.15,39.98-3.66,39.98-3.66,4.7-12.02,23.52-19.6,23.52-19.6-5.49-.52-22.74.26-27.96,3.4-5.23,3.14-28.88,14.77-28.88,14.77h-35.67c-23-2.35-10.45,19.47-10.45,19.47-8.89,13.85-20.12,6.01-24.3,4.44-4.18-1.57,2.09-15.42,7.06-24.57,4.97-9.15,1.05-29.79-7.06-39.46,3.14-28.49-6.8-43.38-11.5-53.57-4.7-10.19-8.36-35.8-12.8-52.01-2.61-15.68-34.5-51.22-34.5-51.22l5.75-11.24c20.91,21.69,35.54,12.54,35.54,12.54,24.3-14.63-3.66-52.01-3.66-52.01,9.67-31.36-18.29-42.34-49.13-58.8-30.84-16.46-48.35,0-48.35,0-3.22.52-15.25-1.4-29.01,2.09-13.76,3.49-14.29,14.11-9.58,23.52,4.71,9.41,32.06,29.97,32.06,29.97-2.61,2.09-5.23,12.19-5.23,12.19-31.36,3.49-27.88,9.06-27.88,9.06,7.49-1.57,8.89,7.67,8.89,7.67-4.18,2.27-13.59,1.05-24.39,1.22-10.8.17-9.75-2.79-19.68-8.36-9.93-5.58-19.69-.17-28.75,3.14-9.07,3.31-27.01,1.22-28.23.35-1.22-.87-.87-4.88-4.88-2.09-4.01,2.79-5.4,1.39-8.18,1.39s-3.32-6.44-11.33-7.14c-8.01-.7-20.04-3.14-20.04-3.14-4.25-2.02-8.36-4.65-12.93-5.89-4.59-1.24-9.37-.49-14.04-.92-5.43-.49-10.76-1.93-16.06-3.13-4.05-.91-7.8-2.88-11.12-5.34-3.01-2.24-5-5.28-7.58-7.95-2.43-2.52-5.2-1.79-8.4-1.9-3.24-.11-6.65-.43-9.55-1.99-3.19-1.72-5.4-5.06-8.13-7.38-8.36-7.15-4.18-13.94,1.22-18.3,5.4-4.35,3.48-6.1,1.91-16.9-1.57-10.8,4.36-24.22,4.36-24.22-7.84-1.57-10.8,6.1-12.02,9.93-1.21,3.83-3.31,13.76-6.97,14.46-3.66.7-13.07-4.53-17.07-7.84-4.01-3.31-9.07-13.07-9.07-13.07-11.32-13.94-10.27-13.42-14.11-13.42s9.76,23.35,9.76,23.35c.2,1.86.34,5.56-1.56,6.69-1.28.77-3.42.19-4.75-.18-6.08-1.69-10.01-6.9-13.56-11.74-1.92-2.61-12.02-9.76-15.16-5.92-3.13,3.83,16.9,20.91,16.9,20.91.86,1.86,3.77,7.61-.41,6.94-3.72-.6-7.01-2.8-10.15-4.73-2.45-1.51-4.52-3.57-5.99-6.04-4.18-6.97-8.36-5.23-8.36-5.23-2.61,4.01,4.53,12.54,14.99,20.73,10.45,8.19-.87,6.97-.87,6.97-4.01-.35,1.57.87-10.45-1.74-12.02-2.61-14.46-1.92-10.28,1.92,4.18,3.83,19.17,8.54,22.66,9.76,3.48,1.22,10.28,9.23,15.24,10.71,2.46,2.05,5.93,2.85,8.99,3.46,4.35.86,7.85.23,11.07,3.81,2.79,3.11,4.43,6.91,6.72,10.36,7.61,11.46,15.08,23,22.26,34.73,17.77,21.95,40.78,29.27,51.92,33.8,11.15,4.53,41.46,2.79,49.48,5.23,8.01,2.44,23.34,8.36,23.34,8.36l1.74.35c12.9-1.74,14.29,7.67,14.29,7.67,2.43,11.49,25.06,9.41,25.09,9.41,6.01-.55,8.04,4.86,8.79,9.63.37,2.39.97,4.77,1.44,7.14.9,4.58,2.01,9.13,3.03,13.69.22,1,.47,1.99.69,2.99-2.79,15.33,4.18,54.71,4.88,61.33.7,6.62,7.66,21.26,31.36,59.59,23.69,38.33,64.81,74.22,64.81,74.22-1.4,3.48-12.2,5.42-12.2,5.42-7.16,1.48-8.99,7.88-11.11,13.84-1.1,3.1-3.24,5.83-4.33,9-1.13,3.32-1.73,6.96-.96,10.43,1.13,5.09,6.39,9.64,10.98,5.12,1.8-1.77,2.97-4.49,3.67-6.88,1.74-5.92,11.16-10.1,11.16-10.1,3.14-2.44,13.93-11.15,13.93-11.15,20.56,33.8,31.71,35.54,38.33,36.59,3.23.51,6.13,2.35,8.47,4.56,1.58,1.49,5.43,5.09,4.6,7.57-.65,1.96-2.73,3.91-3.84,5.67-1.33,2.1-2.42,4.6-4.1,6.45-2.12,2.31-5.54,3.27-8.33,4.49-2.82,1.23-5.68,2.39-8.53,3.55-5.86,2.4-11.7,4.84-17.53,7.3-2.22.94-4.46,1.88-6.64,2.92-7.32,3.48-46.35,21.26-107.32,55.75-.85.48-1.67,1.02-2.51,1.5-8.34-7.27-31.35-28.05-42.36-45.41,0,0-28.22-47.56-63.24-8.89,0,0-11.08,21.43-10.48,42.58-9.6-9.62-26.32-17.48-58.51-21.67,0,0-49.66-2.09-73.17,35.02,0,0-9.41,12.55-34.5,7.84,0,0-16.2-.52-21.95,3.66,0,0,27.18,1.05,30.84,8.36,0,0,10.98,9.41,37.11-18.29,26.13-27.7,40.25-30.84,60.63-26.14,20.38,4.7,37.63,12.54,42.34,12.54s18.29,22.47,23.52,41.29c3.75,13.5,13.95,28.06,20.56,35.01-6.12,5.32-12.01,10.86-18.04,16.29-5.97,5.37-11.48,10.82-16.77,16.9-9.95,11.44-17.02,25.79-24.39,38.93-6.96,12.41-13.65,24.99-20.21,37.62-1.36,2.62-2.9,5.19-4.13,7.87-5.71,7.49-7.92,17.93-9.89,26.92-2.62,11.89-4.3,23.99-5.66,36.09-.76,6.73-.66,13.78-1.85,20.44-1.45,8.12-3.3,16.58-5.43,24.57-2.24,8.43-5.49,16.42-10.36,23.69-3.3,4.93-7.29,9.35-11.77,13.25-24.39,21.26-50.87,12.54-89.55,14.63-33.1.69-48.44,8.01-56.8,13.59-8.37,5.58-36.93,54.36-36.93,54.36l26.48-35.89c11.85-11.5,22.99-8.36,22.99-8.36C65.94,974.56,0,1027.53,0,1027.53l40.5-25.44c-19.51,17.07-29.27,73.53-29.27,73.53,9.06-42.51,29.97-51.92,29.97-51.92-5.23,5.57-16.03,74.22-16.03,74.22,2.79-17.08,16.72-27.18,16.72-27.18.35,4.88-5.93,32.76-5.93,32.76l14.99-13.94c8.71,8.37-2.09,28.92-2.09,28.92-16.37,22.3-12.54,35.19-12.54,35.19.69-6.62,17.43-20.21,17.43-20.21,10.45,32.76-6.62,50.18-6.62,50.18,17.08-1.75,16.73-42.52,16.73-42.52,3.49,20.56-1.05,41.12-1.05,41.12,6.62,6.97,7.67-18.81,7.67-18.81.34-44.95,9.4-45.99,9.4-45.99.7,6.27,9.76,30.66,12.55,39.37,2.79,8.71,5.22,43.2,5.22,43.2,2.79-3.13,7.32-24.04,7.32-24.04l3.13,6.97c4.88-6.27,4.88-30.66,5.57-38.33.7-7.67-.35-41.46,8.01-40.07,8.36,1.39,6.62,37.98,6.62,37.98l12.9-13.94c-3.14,22.3-12.9,38.33-12.9,38.33-22.65,23.35-17.77,56.79-17.77,56.79,6.97-43.9,27.53-51.57,27.53-51.57-.69,1.74-.69,31.36-.69,31.36,3.83-35.54,21.25-27.96,21.25-27.96-13.59,5.49-15.94,15.16-15.94,15.16-.79,18.29-13.07,38.68-13.07,38.68,10.2-6.53,19.6-31.88,19.6-31.88l-8.36,22.48c8.89-2.36,12.8-10.98,12.8-10.98,18.56,32.41-13.59,59.06-13.59,59.06l6.8.79c-14.37,32.4-31.62,41.81-31.62,41.81,8.1-1.83,22.47-12.02,22.47-12.02l-8.62,16.46,10.19-5.23c-4.44,13.85-16.2,21.96-16.2,21.96,13.33-1.05,33.19-22.74,33.19-22.74l-12.02,18.56,26.66-26.4-2.09,11.5,13.59-10.45.78,4.7,16.47-13.07-5.23,15.16,8.1-4.97-.26,14.9,9.93-15.42.79,33.71c1.57-2.61,6.27-34.76,6.27-34.76-.26,13.85,11.76,40.77,10.45,33.45-1.3-7.32-1.83-30.57-1.83-30.57.26,20.12,10.71,32.4,10.71,32.4-4.7-8.1-1.83-40.77-1.83-40.77l6.27,17.25,3.14-17.51c1.57,1.83,12.28,5.22,12.28,5.22-3.14-2.87-5.23-18.81-5.23-18.81l9.67,4.18-3.14-14.63c9.93,8.88,9.41-.52,9.41-.52-7.32-5.49-8.1-10.2-8.1-10.2,3.39,1.04,11.5,3.66,11.5,3.66-.79-3.39-4.97-8.1-4.97-8.1,26.39,1.31,21.69-3.22,21.69-3.22-10.45-4.18-8.71-13.59-8.71-13.59l3.13,1.04-.34-2.43c-.94-5.18-1.33-10.47-1.83-15.69-.53-5.51-.28-12.14-1.94-17.43-1.51-4.84-2.26-8.6-.41-13.57,11.85,5.58,17.07,23.35,17.07,23.35,10.45-19.86-.34-26.14-6.97-40.08-6.62-13.93,2.79-16.37,2.79-16.37,11.16,2.79,21.61,19.51,21.61,19.51,0-3.48-1.4-8.01-1.4-8.01-2.79-4.53-11.85-10.11-14.64-20.56-2.79-10.45-9.76-12.55-9.76-12.55,6.97-3.83,12.54,7.32,12.9,4.19.35-3.14-2.79-10.45-18.47-17.77-15.68-7.32-4.53-22.65-4.53-22.65,30.67,8.01,31.36,37.99,31.36,37.99,3.83-8.01,2.79-20.91,2.79-20.91-.7-8.37-34.15-38.33-34.15-38.33,21.26.35,29.62,8.36,29.62,8.36-5.58-6.27-9.06-19.16-9.06-25.09s-2.44-19.51-5.23-23c-2.79-3.48-12.55-11.5-12.55-11.5,3.49-1.39,11.15,4.18,11.15,4.18-1.74-4.18-5.22-9.76-8.71-12.54-3.49-2.79-16.03-11.15-16.03-11.15-4.18-4.19-16.72-15.68-19.86-20.91-3.14-5.23-19.86-11.5-19.86-11.5,12.55-1.74,26.14,9.76,26.14,9.76-32.06-27.88-14.99-41.47-14.99-41.47,30.67,53.66,67.25,75.61,91.64,90.6,24.39,14.98,16.37,35.19,21.26,59.23,4.88,24.04-1.75,51.92-3.49,73.88-1.74,21.95,31.71,48.43,31.71,48.43,33.1,19.17,43.55,62.37,46.34,66.9,2.8,4.53,21.95,51.92,23.7,58.54,1.74,6.62,10.79,47.74,30.31,61.67,19.51,13.94,14.99,25.09,13.24,26.14-1.92,1.15-3.41,4.21-4.63,5.98-2.12,3.06-4.2,6.17-6.21,9.31-.34.54-1.21,1.48-1.32,2.09-.33,1.81,1.91,5.88,2.58,7.59,1.01,2.55,2.18,5.01,3.57,7.37,2.84,4.87,6.47,9.22,10.32,13.31,6.35,6.73,13.33,12.91,20.84,18.31,1.47,1.06,2.96,2.08,4.47,3.09h13.59c11.15-12.06,11.5-32.19,11.5-32.19.51-13.45-2.21-26.79-7.38-39.17-1.17-2.82-3-5.38-4.11-8.2-2.35-5.98-3.11-13.09-4.68-19.34-1.45-5.75-3.01-11.45-4.91-17.06-3.69-10.9-8.49-21.45-14.56-31.24-4.24-6.84-8.95-13.45-13.83-19.85-24.74-32.4-23.69-41.81-39.72-74.22-16.03-32.41-21.6-85.72-21.6-85.72,7.32,4.18,42.16,63.76,42.16,63.76,6.62,7.66,30.67,64.46,43.9,79.45,1.65,1.87,4.61,3.07,6.52,4.75,1.61,1.41,3.12,2.99,4.31,4.78,2.73,4.08,3.59,9.57,4.5,14.3.37,1.89.63,3.8.73,5.73.09,1.59.49,3.26.27,4.84-.21,1.61-1.09,3.05-1.53,4.61-1.07,3.81-1.19,7.83-1.41,11.77-.38,6.86-.17,13.67-.21,20.53-.03,6.4,3.15,14.44,6.97,19.48,3.77,4.99,8.95,8.86,13.73,12.82,7.96,6.59,16.19,11.49,25.33,16.21,1.69.87,3.41,2,5.27,2.49,7.82-17.46,10.38-37.08,8.28-56.02-.38-3.46-.95-7.11-2.48-10.28-1.99-4.16-1.75-8.19-2.19-12.67-.54-5.5-1.75-10.91-3.11-16.26-1.33-5.28-2.65-11.86-6.08-16.27-1.04-8.01-26.13-54.36-33.1-64.11-6.97-9.76-30.31-56.8-48.78-90.6-6.62-12.12-10.13-25.32-12-38.94-1.58-11.56-1.12-23.32-.62-34.95.12-2.99.39-5.97.87-8.93.97-6.01,2.36-11.08,5.62-16.22,3.11-4.92,5.21-10.35,7.69-15.6,4.88-10.37,9.62-20.8,14.15-31.33,1-2.32,1.85-4.71,2.94-6.99,53.83-101.4,28.39-131.72,28.39-131.72,29.62-6.27,95.83-40.42,95.83-40.42-.82,2.26.08,5.87.3,8.15.54,5.55,1.21,11.1,1.96,16.63,1.78,13.2,3.67,26.39,6.13,39.48,1.92,10.19,5.15,20.07,6.59,30.37,1.16,8.24,2.43,16.46,3.52,24.71,1.21,9.15,2.35,18.3,3.52,27.45.96,7.62,1.84,15.24,2.78,22.87.44,3.61.84,7.23,1.28,10.84.02.12.03.24.05.36,8.36,18.47-6.62,74.92-6.62,74.92-1.74,61.33-18.46,68.99-18.46,68.99-22.65,20.56-11.5,52.27-11.5,52.27-7.67.69-27.53,18.81-27.53,18.81-6.27,45.29,25.79,78.05,25.79,78.05,10.45-8.01,31.01-38.33,31.35-57.5.35-19.17,6.97-30.32,6.97-30.32,0,3.83,6.27,16.03,6.27,16.03,6.27,10.45-5.92,23-5.92,23-2.44,29.61,39.02,50.87,39.02,50.87,1.74-2.43,12.54-44.25,3.84-61.32-8.71-17.08-9.76-39.03-5.58-63.77,4.18-24.75.69-60.63-2.09-84.67-2.78-24.04,26.83-109.76,26.83-109.76,1.47-4.5,2.92-9,4.4-13.5,3.64-11,7.15-22.03,10.78-33.02,4.61-14,9.1-28.04,13.72-42.04,4.45-13.47,8.72-27.01,13.23-40.47,3.41-10.16,6.29-20.47,10.24-30.45.42-1.05.94-3.76,1.79-4.47,4.19-3.52,9.35-6.26,13.85-9.38,4.51-3.12,8.96-6.31,13.32-9.63,2.69-2.05,5.28-4.23,7.89-6.38,9.75,6.84,28.25,22.49,8.78,31.83,0,0-10.8,8.71-9.76,16.03-.35,10.45,1.05,33.8-4.18,41.81-5.23,8.01-4.19,12.19-3.84,17.77.32,5.04,7.2,32.05,13.15,45.65-3.86,3.81-6.61,5.14-6.61,5.14-10.19,1.04-10.98-12.8-10.98-12.8-6.28,7.58,4.97,20.38,4.97,20.38-3.66,9.41-25.35,11.76-25.35,11.76-10.47.19-21.41,4.13-27.46,13.15-1.89,2.83-3.45,6.46-4.37,9.72-1.35,4.74-3.26,8.59-1.48,13.45,1.54,4.23,4.98,6.18,9.44,6.2,4.15.01,8.58-1.48,12.37-3.05,25.87-10.71,15.42,6.01,15.42,6.01-1.81,3.88-8.54,6.82-12.04,8.8-5.87,3.32-11.41,6.77-13.53,13.58-1.7,5.46-1.21,11.77.91,17.05,1.7,4.25,4.88,7.8,8.56,10.47,3.84,2.79,8.41,4.2,12.75,5.99,4.31,1.77,8.22,4.69,12.75,5.88,3.24.85,6.6,1.19,9.95.95,2.83-.2,6.01-3.78,7.96-5.53,1.75-1.57,3.54-3.16,5.11-4.9,1.37-1.51,2.51-3.52,4.67-3.99,2.71-.58,5.54-.17,8.27-.69,2.91-.55,5.8-1.36,8.48-2.64,2.29-1.1,5.03-2.56,6.8-4.45,12.28-10.98,38.68-9.15,43.38-10.72,4.7-1.57,16.73-10.98,20.39-13.85,3.66-2.87,20.91-1.3,25.09-1.83,4.18-.52,7.84-3.39,12.54-9.93,4.7-6.54,12.81-5.23,16.99-5.23s7.84-2.61,7.84-2.61c7.32,2.88-4.7,25.87-4.7,25.87,11.5-7.05,16.46-21.69,16.46-21.69,5.23,6.53,3.66,26.39,3.66,26.39l7.06-19.6,4.96,27.18c2.61-2.87,4.18-29.27,4.18-29.27,9.93,7.05,3.92,35.8,3.92,35.8l6.79-10.72,2.61,8.89,4.96-10.98.79,23.78c10.98-5.23,10.98-21.17,10.98-21.17,19.6,20.65,21.43,15.42,21.43,15.42-4.18-.26-10.98-11.76-10.98-15.68s.52-30.58-1.57-37.11c-2.09-6.53-6.4-15.16-6.4-15.16,10.07,6.01,13.72,22.99,13.72,22.99l.26-28.48,6.8,14.37.52-26.92,7.58,13.33.79-13.06c17.62,17.78,18.03,10.98,18.03,10.98-6.53-5.23-16.2-22.74-16.2-22.74l14.89,7.84-3.66-10.37c4.7.87,13.59,4.36,13.59,4.36,1.31-3.92-4.44-14.29-4.44-14.29,0,0,5.75,2.53,14.11,0,8.36-2.53,9.67-6.36,7.06-6.36s-13.07-2.35-13.07-2.35c-20.91-2.35-13.07-19.6-13.07-19.6,9.15-14.9,29.27,0,29.27,0-.52-2.87-4.96-9.41-8.89-12.02-3.92-2.61-5.49-1.57-6.79-10.45-1.3-8.88,10.72-3.92,10.72-3.92-1.57-24.04,7.58-19.6,7.58-19.6,1.57-5.75-7.84-15.94-7.84-15.94-1.57-16.99,2.88-13.07,2.88-13.07l6.53,5.75s-1.31-3.92-3.66-7.84c-3.14-16.99-5.75-12.02-10.98-23.78-5.23-11.76,6.79-4.71,6.79-4.71,15.94,10.98,14.11,5.49,14.11,5.49,1.04-1.31-6.01-9.93-6.01-9.93l7.84,3.66-.52-7.06,6.27,4.97s4.18,13.85.26-1.31c-3.92-15.16-13.85-15.68-16.46-21.17-2.61-5.49-9.41-19.08-13.33-26.39-3.92-7.32-1.57-7.06-1.57-7.06,8.36,3.13,26.66,15.42,26.66,15.42,0-7.06-10.19-14.37-15.68-24.57-5.49-10.2-2.09-12.02-2.09-12.02Zm-767.74-107.88c-4.86,3.83-9.62,7.78-14.36,11.77-7.39-5.74-20.35-17.58-25.45-33.25-.14-.42-.27-.84-.4-1.26,6.2,4.38,14.62,7.63,26.01,9.1,0,0,10.91-.52,18.26,9.41.19.26.35.47.53.71-1.52,1.18-3.08,2.33-4.59,3.53Zm40-29.14c-3.15,2.09-6.34,4.13-9.43,6.3-3.43,2.42-6.8,4.92-10.19,7.4l-.03-.05s-23.56-16.97-35.59-15.93c-12.02,1.04-30.84-2.61-28.22-26.14,0,0-9.41-40.77,21.95-43.38,0,0,14.64-9.41,47.04,43.38,0,0,15.37,27.68,14.57,28.21-.05.03-.06.13-.1.2Zm285.29,601.42l18.81-77.1s2.35,46.52-18.81,77.1Zm5.23-186.86c3.4-37.9,18.03-57.23,18.03-57.23l-18.03,57.23Zm19.6-73.96v-96.43s12.02,54.1,0,96.43Zm44.43-490.8h-29.27s-13.94,8.02-24.74,3.49c0,0-5.23-16.73,32.41-18.47,0,0,28.22-24.74,53.31,11.15,0,0-28.58-.7-31.71,3.83Zm200.93,379.08c-10.79,3.67-21.58,7.02-31.63,12.53-7.75,4.25-15.06,9.33-22.04,14.74-2.59,2.01-5.1,4.1-7.61,6.21-8.71,7.32-34.5,46.35-43.21,64.47-.38.78-.76,1.5-1.14,2.24-4.3-8.03-10.14-21.49-7.14-31.17,4.53-14.63,9.06-38.33,9.06-43.56s2.09-18.47,2.09-21.95,20.91-3.13,17.77-23.7c-2.73-17.92-7.32-30-16.07-36.73,6.99-7.53,13.41-15.57,19.18-24.07,1.63-2.4,2.91-4.6,5.73-5.73,5.62-2.24,14.14-2.17,20-1.19,5.85.97,10.77,4.34,15.44,7.82,4.34,3.23,8.38,6.85,12.43,10.43,7.79,6.87,13.3,16.15,17.42,25.58,3.89,8.92,6.83,18.24,8.97,27.73.83,3.69,1.86,7.34,2.43,11.08.35,2.37,1.01,4.35-1.68,5.27Zm110.24,131.92s-5.92-5.05-12.19-4.36c0,0-21.25-2.96-5.05-15.51,0,0,10.8,3.49,17.25,11.15,0,0,1.74,5.41,0,8.71Z"/>
</svg>